<svg xmlns="http://www.w3.org/2000/svg" width="1000" height="300" viewBox="0 0 1000 300" role="img" aria-label="Contribution activity over the last year: 1377 contributions">
  <defs>
    <linearGradient id="ln" x1="0" y1="0" x2="1" y2="0">
      <stop offset="0%" stop-color="#FE428E"/>
      <stop offset="100%" stop-color="#9D4EDD"/>
    </linearGradient>
    <linearGradient id="ar" x1="0" y1="0" x2="0" y2="1">
      <stop offset="0%" stop-color="#FE428E" stop-opacity=".45"/>
      <stop offset="100%" stop-color="#FE428E" stop-opacity="0"/>
    </linearGradient>
    <style>
      .ttl { font: 700 18px 'Segoe UI', Ubuntu, sans-serif; fill: #FE428E }
      .sub { font: 400 12px 'Segoe UI', Ubuntu, sans-serif; fill: #5F5A7A }
      .ax  { font: 400 11px 'Segoe UI', Ubuntu, sans-serif; fill: #5F5A7A }
      .line { fill: none; stroke: url(#ln); stroke-width: 2.6; stroke-linecap: round; stroke-linejoin: round;
              stroke-dasharray: 6000; stroke-dashoffset: 6000; animation: draw 2.6s ease-out forwards .2s }
      .area { opacity: 0; animation: rise 1.4s ease-out forwards 1.1s }
      @keyframes draw { to { stroke-dashoffset: 0 } }
      @keyframes rise { to { opacity: 1 } }
      .bg { fill: #141321 }
      @media (prefers-color-scheme: light) {
        .bg  { fill: #FFFFFF }
        .ttl { fill: #D6336C }
        .sub, .ax { fill: #6E7681 }
      }
    </style>
  </defs>
  <rect class="bg" width="1000" height="300" rx="8"/>
  <text class="ttl" x="52" y="32">Atividade de Contribuições</text>
  <text class="sub" x="52" y="50">1,377 contribuições no último ano — repositórios privados incluídos</text>
  <line x1="52" y1="258.0" x2="966" y2="258.0" stroke="#5F5A7A" stroke-opacity=".22"/>
      <text class="ax" x="40" y="262.0" text-anchor="end">0</text><line x1="52" y1="207.7" x2="966" y2="207.7" stroke="#5F5A7A" stroke-opacity=".22"/>
      <text class="ax" x="40" y="211.7" text-anchor="end">83</text><line x1="52" y1="158.0" x2="966" y2="158.0" stroke="#5F5A7A" stroke-opacity=".22"/>
      <text class="ax" x="40" y="162.0" text-anchor="end">165</text><line x1="52" y1="107.7" x2="966" y2="107.7" stroke="#5F5A7A" stroke-opacity=".22"/>
      <text class="ax" x="40" y="111.7" text-anchor="end">248</text><line x1="52" y1="58.0" x2="966" y2="58.0" stroke="#5F5A7A" stroke-opacity=".22"/>
      <text class="ax" x="40" y="62.0" text-anchor="end">330</text>
  <path class="area" d="M52.0,258.0 C54.9,258.0 63.7,258.0 69.6,258.0 C75.4,258.0 81.3,258.0 87.2,258.0 C93.0,258.0 98.9,258.0 104.7,258.0 C110.6,258.0 116.4,258.0 122.3,258.0 C128.2,258.0 134.0,258.0 139.9,258.0 C145.7,258.0 151.6,258.0 157.5,258.0 C163.3,258.0 169.2,258.0 175.0,258.0 C180.9,258.0 186.8,258.0 192.6,258.0 C198.5,258.0 204.3,258.0 210.2,258.0 C216.1,258.0 221.9,258.0 227.8,258.0 C233.6,258.0 239.5,259.4 245.3,258.0 C251.2,256.6 257.1,249.5 262.9,249.5 C268.8,249.5 274.6,256.6 280.5,258.0 C286.4,259.4 292.2,258.0 298.1,258.0 C303.9,258.0 309.8,258.3 315.7,258.0 C321.5,257.7 327.4,256.2 333.2,256.2 C339.1,256.2 344.9,257.7 350.8,258.0 C356.7,258.3 362.5,258.0 368.4,258.0 C374.2,258.0 380.1,258.3 386.0,258.0 C391.8,257.7 397.7,256.2 403.5,256.2 C409.4,256.2 415.3,257.7 421.1,258.0 C427.0,258.3 432.8,258.0 438.7,258.0 C444.6,258.0 450.4,258.5 456.3,258.0 C462.1,257.5 468.0,258.1 473.8,255.0 C479.7,251.8 485.6,238.9 491.4,239.2 C497.3,239.5 503.1,254.9 509.0,256.8 C514.9,258.7 520.7,254.4 526.6,250.7 C532.4,247.1 538.3,245.1 544.2,235.0 C550.0,224.9 555.9,200.7 561.7,190.1 C567.6,179.5 573.4,166.1 579.3,171.3 C585.2,176.6 591.0,207.9 596.9,221.6 C602.7,235.4 608.6,247.7 614.5,253.8 C620.3,259.8 626.2,257.6 632.0,258.0 C637.9,258.4 643.8,257.5 649.6,256.2 C655.5,254.9 661.3,251.5 667.2,250.1 C673.1,248.7 678.9,246.9 684.8,247.7 C690.6,248.5 696.5,257.7 702.3,255.0 C708.2,252.2 714.1,240.7 719.9,231.3 C725.8,221.9 731.6,205.8 737.5,198.6 C743.4,191.4 749.2,188.2 755.1,188.3 C760.9,188.4 766.8,190.0 772.7,199.2 C778.5,208.4 784.4,237.4 790.2,243.5 C796.1,249.5 801.9,233.3 807.8,235.6 C813.7,237.9 819.5,255.3 825.4,257.4 C831.2,259.5 837.1,248.9 843.0,248.3 C848.8,247.7 854.7,252.3 860.5,253.8 C866.4,255.2 872.3,257.4 878.1,256.8 C884.0,256.2 889.8,251.5 895.7,250.1 C901.6,248.7 907.4,249.9 913.3,248.3 C919.1,246.7 925.0,247.7 930.8,240.4 C936.7,233.2 942.6,234.3 948.4,204.7 C954.3,175.1 963.1,86.5 966.0,62.8 L966.0,258 L52.0,258 Z" fill="url(#ar)"/>
  <path class="line" d="M52.0,258.0 C54.9,258.0 63.7,258.0 69.6,258.0 C75.4,258.0 81.3,258.0 87.2,258.0 C93.0,258.0 98.9,258.0 104.7,258.0 C110.6,258.0 116.4,258.0 122.3,258.0 C128.2,258.0 134.0,258.0 139.9,258.0 C145.7,258.0 151.6,258.0 157.5,258.0 C163.3,258.0 169.2,258.0 175.0,258.0 C180.9,258.0 186.8,258.0 192.6,258.0 C198.5,258.0 204.3,258.0 210.2,258.0 C216.1,258.0 221.9,258.0 227.8,258.0 C233.6,258.0 239.5,259.4 245.3,258.0 C251.2,256.6 257.1,249.5 262.9,249.5 C268.8,249.5 274.6,256.6 280.5,258.0 C286.4,259.4 292.2,258.0 298.1,258.0 C303.9,258.0 309.8,258.3 315.7,258.0 C321.5,257.7 327.4,256.2 333.2,256.2 C339.1,256.2 344.9,257.7 350.8,258.0 C356.7,258.3 362.5,258.0 368.4,258.0 C374.2,258.0 380.1,258.3 386.0,258.0 C391.8,257.7 397.7,256.2 403.5,256.2 C409.4,256.2 415.3,257.7 421.1,258.0 C427.0,258.3 432.8,258.0 438.7,258.0 C444.6,258.0 450.4,258.5 456.3,258.0 C462.1,257.5 468.0,258.1 473.8,255.0 C479.7,251.8 485.6,238.9 491.4,239.2 C497.3,239.5 503.1,254.9 509.0,256.8 C514.9,258.7 520.7,254.4 526.6,250.7 C532.4,247.1 538.3,245.1 544.2,235.0 C550.0,224.9 555.9,200.7 561.7,190.1 C567.6,179.5 573.4,166.1 579.3,171.3 C585.2,176.6 591.0,207.9 596.9,221.6 C602.7,235.4 608.6,247.7 614.5,253.8 C620.3,259.8 626.2,257.6 632.0,258.0 C637.9,258.4 643.8,257.5 649.6,256.2 C655.5,254.9 661.3,251.5 667.2,250.1 C673.1,248.7 678.9,246.9 684.8,247.7 C690.6,248.5 696.5,257.7 702.3,255.0 C708.2,252.2 714.1,240.7 719.9,231.3 C725.8,221.9 731.6,205.8 737.5,198.6 C743.4,191.4 749.2,188.2 755.1,188.3 C760.9,188.4 766.8,190.0 772.7,199.2 C778.5,208.4 784.4,237.4 790.2,243.5 C796.1,249.5 801.9,233.3 807.8,235.6 C813.7,237.9 819.5,255.3 825.4,257.4 C831.2,259.5 837.1,248.9 843.0,248.3 C848.8,247.7 854.7,252.3 860.5,253.8 C866.4,255.2 872.3,257.4 878.1,256.8 C884.0,256.2 889.8,251.5 895.7,250.1 C901.6,248.7 907.4,249.9 913.3,248.3 C919.1,246.7 925.0,247.7 930.8,240.4 C936.7,233.2 942.6,234.3 948.4,204.7 C954.3,175.1 963.1,86.5 966.0,62.8"/>
  <text class="ax" x="52.0" y="284" text-anchor="middle">Jul</text><text class="ax" x="87.2" y="284" text-anchor="middle">Aug</text><text class="ax" x="157.5" y="284" text-anchor="middle">Sep</text><text class="ax" x="227.8" y="284" text-anchor="middle">Oct</text><text class="ax" x="315.7" y="284" text-anchor="middle">Nov</text><text class="ax" x="386.0" y="284" text-anchor="middle">Dec</text><text class="ax" x="473.8" y="284" text-anchor="middle">Jan</text><text class="ax" x="544.2" y="284" text-anchor="middle">Feb</text><text class="ax" x="614.5" y="284" text-anchor="middle">Mar</text><text class="ax" x="684.8" y="284" text-anchor="middle">Apr</text><text class="ax" x="772.7" y="284" text-anchor="middle">May</text><text class="ax" x="843.0" y="284" text-anchor="middle">Jun</text><text class="ax" x="913.3" y="284" text-anchor="middle">Jul</text>
</svg>
